<svg xmlns="http://www.w3.org/2000/svg" viewBox="0 0 1024 1024" role="img" aria-label="wefrigerator app icon">
  <defs>
    <linearGradient id="g" x1="0" y1="0" x2="1" y2="1">
      <stop offset="0" stop-color="#2EA7F2"/>
      <stop offset="1" stop-color="#3AD29F"/>
    </linearGradient>
  </defs>
  <rect x="64" y="64" width="896" height="896" rx="200" fill="url(#g)"/>
  <rect x="272" y="224" width="480" height="576" rx="64" fill="#F9FBFC"/>
  <rect x="272" y="224" width="232" height="576" rx="64" fill="#E9F6FF"/>
  <rect x="480" y="320" width="24" height="120" rx="12" fill="#0A1B2A" opacity="0.25"/>
  <rect x="480" y="584" width="24" height="120" rx="12" fill="#0A1B2A" opacity="0.25"/>
  <path d="M512 476c-44-62-132-58-168-10-28 38-21 96 16 130 52 47 128 108 152 124 24-16 100-77 152-124 37-34 44-92 16-130-36-48-124-52-168 10z" fill="#FFB020"/>
  <circle cx="512" cy="748" r="14" fill="#0A1B2A" opacity="0.25"/>
</svg>