<svg xmlns="http://www.w3.org/2000/svg" viewBox="0 0 1584 396" role="img" aria-label="wefrigerator LinkedIn banner">
  <rect width="1584" height="396" fill="#0A1B2A"/>
  <g transform="translate(72,60)">
    <rect width="220" height="276" rx="36" fill="#2EA7F2"/>
    <rect x="38" y="86" width="144" height="172" rx="20" fill="#F9FBFC"/>
    <rect x="38" y="86" width="70" height="172" rx="20" fill="#E9F6FF"/>
    <path d="M110 184c-18-26-54-24-70-4-11 15-9 39 6 53 21 20 50 44 61 51 11-7 40-31 61-51 15-14 17-38 6-53-16-20-52-22-70 4z" fill="#FFB020"/>
  </g>
  <g transform="translate(360,120)" fill="#F9FBFC">
    <rect x="0" y="0" width="780" height="28" rx="14"/>
    <rect x="0" y="48" width="520" height="18" rx="9" opacity="0.7"/>
  </g>
</svg>