<svg xmlns="http://www.w3.org/2000/svg" viewBox="0 0 1200 800" role="img" aria-label="wefrigerator map illustration">
  <rect width="1200" height="800" fill="#E9F6FF"/>
  <g stroke="#C8DFEE" stroke-width="20" fill="none">
    <path d="M60 160 L1140 160"/>
    <path d="M60 360 L1140 360"/>
    <path d="M60 560 L1140 560"/>
    <path d="M200 60 L200 740"/>
    <path d="M520 60 L520 740"/>
    <path d="M840 60 L840 740"/>
  </g>
  <g>
    <g transform="translate(200,360)">
      <circle cx="0" cy="0" r="22" fill="#3AD29F"/>
      <rect x="-28" y="28" width="56" height="72" rx="12" fill="#fff"/>
      <rect x="-28" y="28" width="26" height="72" rx="12" fill="#E9F6FF"/>
      <path d="M0 72c-12-18-36-17-46-3-7 10-5 25 4 33 15 14 36 31 42 35 6-4 27-21 42-35 9-8 11-23 4-33-10-14-34-15-46 3z" fill="#FFB020"/>
    </g>
    <g transform="translate(520,160)">
      <circle cx="0" cy="0" r="22" fill="#FFB020"/>
      <rect x="-28" y="28" width="56" height="72" rx="12" fill="#fff"/>
      <rect x="-28" y="28" width="26" height="72" rx="12" fill="#E9F6FF"/>
    </g>
    <g transform="translate(840,560)">
      <circle cx="0" cy="0" r="22" fill="#2EA7F2"/>
      <rect x="-28" y="28" width="56" height="72" rx="12" fill="#fff"/>
      <rect x="-28" y="28" width="26" height="72" rx="12" fill="#E9F6FF"/>
    </g>
  </g>
</svg>