<svg xmlns="http://www.w3.org/2000/svg" viewBox="0 0 1200 630" role="img" aria-label="wefrigerator social share">
  <defs>
    <linearGradient id="bg" x1="0" y1="0" x2="1" y2="1">
      <stop offset="0" stop-color="#2EA7F2"/>
      <stop offset="1" stop-color="#3AD29F"/>
    </linearGradient>
  </defs>
  <rect width="1200" height="630" fill="url(#bg)"/>
  <rect x="64" y="80" width="240" height="240" rx="40" fill="#F9FBFC"/>
  <rect x="64" y="80" width="112" height="240" rx="40" fill="#E9F6FF"/>
  <rect x="168" y="112" width="12" height="56" rx="6" fill="#0A1B2A" opacity="0.3"/>
  <rect x="168" y="212" width="12" height="56" rx="6" fill="#0A1B2A" opacity="0.3"/>
  <path d="M180 200c-26-36-78-34-100-6-16 22-13 56 9 76 31 28 75 64 90 74 15-10 59-46 90-74 22-20 25-54 9-76-22-28-74-30-100 6z" fill="#FFB020"/>
  <g fill="#fff" opacity="0.95" transform="translate(360,120)">
    <rect x="0" y="0" width="760" height="32" rx="16"/>
    <rect x="0" y="56" width="520" height="18" rx="9" opacity="0.7"/>
    <rect x="0" y="92" width="380" height="18" rx="9" opacity="0.6"/>
  </g>
</svg>