<svg xmlns="http://www.w3.org/2000/svg" viewBox="0 0 1600 320" role="img" aria-label="wefrigerator wordmark">
  <defs>
    <linearGradient id="g" x1="0" y1="0" x2="1" y2="1">
      <stop offset="0" stop-color="#2EA7F2"/>
      <stop offset="1" stop-color="#3AD29F"/>
    </linearGradient>
  </defs>

  <!-- Icon tile (matches app icon language) -->
  <rect x="24" y="24" width="272" height="272" rx="64" fill="url(#g)"/>
  <rect x="80" y="64" width="160" height="192" rx="28" fill="#F9FBFC"/>
  <rect x="80" y="64" width="78" height="192" rx="28" fill="#E9F6FF"/>
  <rect x="156" y="96" width="10" height="40" rx="5" fill="#0A1B2A" opacity="0.25"/>
  <rect x="156" y="180" width="10" height="40" rx="5" fill="#0A1B2A" opacity="0.25"/>
  <path d="M160 170c-13-18-39-17-50-3-8 11-6 29 5 39 15 14 38 32 45 37 7-5 30-23 45-37 11-10 13-28 5-39-11-14-37-15-50 3z" fill="#FFB020"/>

  <!-- Wordmark: 'wefrigerator' -->
  <g transform="translate(336,204)">
    <text x="0" y="0"
          font-family="DM Sans, Inter, system-ui, -apple-system, Segoe UI, Roboto, Helvetica, Arial, sans-serif"
          font-size="140"
          font-weight="700"
          fill="#0A1B2A"
          letter-spacing="1">
      wefrigerator
    </text>
  </g>
</svg>